<svg aria-hidden="true" style="position:absolute;width:0;height:0;overflow:hidden" xmlns="http://www.w3.org/2000/svg"><defs><symbol id="icon-visa" viewBox="0 0 32 32"><path fill="#f9f9f9" style="fill:var(--color1, #f9f9f9)" d="M25.776 23.288H6.224a1.472 1.472 0 0 1-1.472-1.472V10.184c0-.813.659-1.472 1.472-1.472h19.552c.813 0 1.472.659 1.472 1.472v11.632c0 .813-.659 1.472-1.472 1.472z"/><path fill="#0052cc" style="fill:var(--color2, #0052cc)" d="M10.961 16.839a.256.256 0 0 0 .043.11l1.442-3.642h1.466c-.026.067-.048.126-.073.184-.717 1.71-1.434 3.421-2.149 5.132-.027.065-.06.09-.133.09a80.477 80.477 0 0 0-1.3 0c-.065.001-.093-.016-.11-.084-.362-1.408-.73-2.815-1.088-4.224z"/><path fill="#ffc601" style="fill:var(--color3, #ffc601)" d="M9.058 14.404c-.064-.253-.191-.428-.433-.535-.397-.177-.81-.3-1.232-.398-.018-.004-.036-.012-.054-.018v-.039c.013-.106.08-.116.173-.116.735.004 1.47.002 2.205.002.365 0 .615.203.683.562.188.991.374 1.983.561 2.975z"/><path fill="#0052cc" style="fill:var(--color2, #0052cc)" d="M18.932 13.203c.157.026.315.046.471.079.153.033.304.079.455.121.037.01.071.027.114.043l-.241 1.127c-.184-.058-.36-.124-.542-.168-.327-.079-.66-.113-.989-.025a.867.867 0 0 0-.332.18c-.158.138-.158.339-.006.483.104.098.226.18.349.253.245.145.503.269.745.42.326.202.596.46.705.844a1.642 1.642 0 0 1-.636 1.751 2.55 2.55 0 0 1-1.193.448 4.358 4.358 0 0 1-1.991-.202c-.036-.012-.071-.028-.117-.047l.252-1.181c.055.024.102.043.147.064.401.19.823.281 1.266.276.203-.002.402-.034.586-.131.335-.177.379-.52.084-.754a3.005 3.005 0 0 0-.474-.29c-.274-.142-.544-.287-.782-.487-.678-.57-.592-1.367-.225-1.903.302-.441.746-.674 1.251-.802.161-.041.328-.056.492-.083.024-.004.048-.013.072-.019h.539zM24.661 18.706h-1.289c-.041-.192-.083-.385-.122-.578-.046-.227-.045-.227-.28-.227-.491 0-.982.001-1.473-.001-.068 0-.102.019-.124.086a18.64 18.64 0 0 1-.235.65c-.012.03-.053.071-.08.071-.465.004-.93.003-1.405.003.012-.034.02-.061.03-.086l2.052-4.9a.637.637 0 0 1 .628-.42h1.168l1.129 5.403zm-1.69-1.909-.417-2.001-.022-.003-.726 2.004h1.165zM13.361 18.711l1.157-5.404h1.395c-.037.179-.072.351-.109.522-.339 1.585-.679 3.169-1.014 4.755-.021.101-.058.131-.161.129-.382-.007-.764-.003-1.145-.003h-.123z"/><path fill="none" stroke="#303030" style="stroke:var(--color4, #303030)" stroke-linejoin="round" stroke-linecap="round" stroke-miterlimit="10" stroke-width=".533" d="M25.776 23.288H6.224a1.472 1.472 0 0 1-1.472-1.472V10.184c0-.813.659-1.472 1.472-1.472h19.552c.813 0 1.472.659 1.472 1.472v11.632c0 .813-.659 1.472-1.472 1.472z"/></symbol><symbol id="icon-mastercard" viewBox="0 0 51 32"><path fill="#d9222a" style="fill:var(--color5, #d9222a)" d="M29.487 16c0 6.736-5.46 12.196-12.196 12.196S5.096 22.736 5.096 16c0-6.735 5.46-12.196 12.195-12.196S29.487 9.264 29.487 16z"/><path fill="#ee9f2d" style="fill:var(--color6, #ee9f2d)" d="M33.664 3.804a12.15 12.15 0 0 0-8.187 3.157c-.441.4-.852.831-1.231 1.291h2.464c.337.41.647.841.93 1.292h-4.323c-.259.415-.494.846-.703 1.291h5.728c.196.418.368.849.516 1.291h-6.761c-.141.421-.26.851-.354 1.291h7.469a12.267 12.267 0 0 1-.354 6.456h-6.761c.148.442.32.873.516 1.291h5.728c-.209.446-.444.877-.703 1.292h-4.323c.282.45.593.882.93 1.291h2.463c-.378.46-.79.892-1.232 1.292a12.152 12.152 0 0 0 8.187 3.156c6.736 0 12.196-5.46 12.196-12.196S40.399 3.803 33.663 3.803z"/><path style="fill:var(--color7, #000)" d="M44.234 22.798a.394.394 0 1 1 .788 0 .394.394 0 0 1-.788 0zm.394.3a.3.3 0 1 0 0-.598.3.3 0 0 0 0 .598zm-.053-.127h-.081v-.346h.146c.031 0 .062 0 .089.017a.104.104 0 0 1 .044.087.094.094 0 0 1-.06.089l.064.153h-.089l-.053-.137h-.059v.137zm0-.196h.045c.017 0 .034.001.049-.007a.048.048 0 0 0 .02-.04c0-.013-.008-.029-.02-.035-.014-.009-.036-.007-.051-.007h-.043v.088zM14.443 17.335a2.22 2.22 0 0 0-.296-.02c-.75 0-1.13.257-1.13.766 0 .313.185.513.475.513.539 0 .928-.514.951-1.258zm.963 2.242h-1.097l.025-.521c-.335.412-.781.608-1.388.608-.718 0-1.21-.561-1.21-1.374 0-1.225.856-1.939 2.325-1.939.15 0 .343.014.54.039.041-.166.052-.237.052-.326 0-.333-.231-.458-.849-.458a4.402 4.402 0 0 0-1.401.226l.183-1.132c.66-.193 1.095-.266 1.585-.266 1.137 0 1.739.51 1.738 1.475.002.259-.041.578-.107.997-.115.729-.361 2.291-.395 2.672zM11.183 19.577H9.859l.758-4.756-1.693 4.756h-.902l-.112-4.728-.797 4.728H5.874l1.035-6.186h1.904l.116 3.463 1.161-3.463h2.117l-1.024 6.186zM35.3 17.335c-.138-.016-.2-.02-.295-.02-.75 0-1.13.257-1.13.766 0 .313.185.513.474.513.539 0 .928-.514.951-1.258zm.964 2.242h-1.097l.025-.521c-.335.412-.781.608-1.387.608-.718 0-1.209-.561-1.209-1.374 0-1.225.855-1.939 2.324-1.939.15 0 .342.014.539.039.041-.166.052-.237.052-.326 0-.333-.23-.458-.849-.458a4.421 4.421 0 0 0-1.402.226l.184-1.132c.66-.193 1.095-.266 1.584-.266 1.137 0 1.74.51 1.738 1.475.002.259-.041.578-.107.997-.114.729-.361 2.291-.395 2.672zM21.29 19.501a3.025 3.025 0 0 1-.951.163c-.677 0-1.046-.389-1.046-1.105-.01-.222.097-.807.181-1.341.076-.47.574-3.433.574-3.433h1.316l-.154.761h.795l-.18 1.209h-.798c-.153.957-.371 2.149-.373 2.307 0 .259.138.373.453.373.151 0 .268-.015.357-.048l-.175 1.114zM25.325 19.46a4.5 4.5 0 0 1-1.351.204c-1.473-.001-2.241-.771-2.241-2.244 0-1.72.977-2.986 2.303-2.986 1.085 0 1.778.709 1.778 1.821 0 .369-.048.729-.162 1.237h-2.621c-.089.73.378 1.034 1.144 1.034.471 0 .896-.097 1.368-.317l-.219 1.251zm-.739-2.983c.007-.105.14-.898-.612-.898-.419 0-.719.32-.841.898h1.453zM16.2 16.136c0 .636.309 1.075 1.008 1.405.536.252.619.327.619.555 0 .314-.236.455-.76.455a3.72 3.72 0 0 1-1.186-.199l-.182 1.162c.301.066.569.127 1.378.149 1.397 0 2.042-.532 2.042-1.682 0-.691-.27-1.097-.933-1.402-.555-.255-.619-.312-.619-.547 0-.272.22-.411.648-.411.26 0 .615.028.951.076l.189-1.167a9.046 9.046 0 0 0-1.165-.098c-1.481 0-1.994.774-1.989 1.703zM31.764 14.566c.368 0 .711.097 1.183.334l.217-1.343c-.194-.076-.877-.523-1.455-.523-.886 0-1.635.44-2.162 1.165-.768-.255-1.084.26-1.471.772l-.344.08c.026-.169.05-.336.042-.506h-1.216c-.166 1.557-.461 3.134-.691 4.693l-.06.338h1.325c.221-1.436.342-2.356.416-2.979l.499-.277c.075-.277.308-.371.776-.359a5.65 5.65 0 0 0-.094 1.032c0 1.646.888 2.671 2.313 2.671.367 0 .682-.048 1.17-.181l.233-1.41c-.439.216-.799.318-1.125.318-.77 0-1.235-.568-1.235-1.507 0-1.362.693-2.317 1.681-2.317z"/><path fill="#fff" style="fill:var(--color8, #fff)" d="M11.564 19.21H10.24l.759-4.755-1.694 4.755h-.902l-.112-4.728-.797 4.728H6.255l1.035-6.185h1.904l.054 3.829 1.284-3.829h2.056l-1.024 6.185z"/><path style="fill:var(--color7, #000)" d="m42.974 13.391-.294 1.787c-.362-.476-.751-.821-1.264-.821-.668 0-1.276.506-1.674 1.252a11.044 11.044 0 0 1-1.128-.31v.005a7.41 7.41 0 0 0 .059-.757h-1.216c-.166 1.557-.46 3.134-.69 4.693l-.061.338h1.324c.179-1.162.316-2.126.417-2.891.452-.409.679-.765 1.136-.742a4.316 4.316 0 0 0-.321 1.632c0 1.258.636 2.087 1.599 2.087.485 0 .857-.167 1.221-.555l-.062.468h1.252l1.008-6.185h-1.306zm-1.656 5.023c-.451 0-.678-.333-.678-.992 0-.989.426-1.69 1.027-1.69.455 0 .701.347.701.986 0 .997-.433 1.696-1.05 1.696z"/><path fill="#fff" style="fill:var(--color8, #fff)" d="M14.824 16.969c-.139-.016-.2-.02-.295-.02-.75 0-1.13.257-1.13.765 0 .313.185.513.474.513.54 0 .929-.514.951-1.258zm.963 2.241H14.69l.025-.521c-.334.411-.781.608-1.387.608-.718 0-1.21-.561-1.21-1.374 0-1.225.855-1.939 2.325-1.939.15 0 .343.014.539.039.041-.166.052-.237.052-.327 0-.334-.23-.457-.849-.457a4.415 4.415 0 0 0-1.402.226 790 790 0 0 0 .183-1.13c.66-.194 1.095-.267 1.584-.267 1.137 0 1.74.511 1.738 1.475.002.26-.041.578-.108.997-.115.729-.361 2.291-.395 2.671zM33.545 13.191l-.217 1.343c-.472-.238-.815-.334-1.183-.334-.989 0-1.682.955-1.682 2.317 0 .939.466 1.507 1.235 1.507.326 0 .686-.101 1.125-.318l-.232 1.41c-.488.133-.803.181-1.17.181-1.425 0-2.313-1.025-2.313-2.671 0-2.211 1.227-3.757 2.982-3.757.578 0 1.261.245 1.455.321zM35.682 16.969c-.139-.016-.2-.02-.295-.02-.75 0-1.13.257-1.13.765 0 .313.185.513.474.513.539 0 .928-.514.951-1.258zm.963 2.241h-1.097l.025-.521c-.335.411-.781.608-1.387.608-.718 0-1.21-.561-1.21-1.374 0-1.225.856-1.939 2.324-1.939.15 0 .343.014.54.039.041-.166.052-.237.052-.327 0-.334-.23-.457-.849-.457a4.415 4.415 0 0 0-1.402.226l.184-1.13c.66-.194 1.095-.267 1.584-.267 1.137 0 1.74.511 1.738 1.475.002.26-.041.578-.107.997-.114.729-.362 2.291-.395 2.671zM21.671 19.134a3.033 3.033 0 0 1-.951.164c-.677 0-1.046-.389-1.046-1.105-.009-.223.098-.807.182-1.341.076-.471.574-3.433.574-3.433h1.316l-.153.762h.675l-.18 1.209h-.678c-.153.957-.371 2.148-.373 2.307 0 .26.139.373.453.373.151 0 .268-.015.357-.047l-.175 1.113zM25.706 19.093a4.505 4.505 0 0 1-1.351.204c-1.473-.001-2.241-.771-2.241-2.244 0-1.72.977-2.986 2.303-2.986 1.085 0 1.778.709 1.778 1.821 0 .369-.048.729-.162 1.237h-2.621c-.089.73.378 1.034 1.144 1.034.471 0 .896-.097 1.368-.318l-.219 1.252zm-.74-2.983c.008-.105.14-.898-.612-.898-.419 0-.719.32-.841.898h1.453zM16.581 15.77c0 .636.309 1.075 1.008 1.405.536.252.619.327.619.555 0 .314-.237.455-.76.455-.395 0-.763-.062-1.187-.198 0 0-.174 1.109-.181 1.162.3.066.569.126 1.378.149 1.397 0 2.042-.532 2.042-1.681 0-.692-.27-1.097-.933-1.402-.555-.255-.619-.311-.619-.547 0-.272.221-.412.648-.412.26 0 .615.029.951.076l.188-1.167a9.032 9.032 0 0 0-1.165-.098c-1.481 0-1.994.773-1.989 1.703zM43.652 19.21h-1.253l.062-.468c-.363.388-.735.556-1.221.556-.962 0-1.599-.83-1.599-2.087 0-1.673.987-3.084 2.154-3.084.514 0 .902.21 1.264.686l.294-1.787h1.306l-1.008 6.185zm-1.953-1.163c.617 0 1.05-.699 1.05-1.695 0-.639-.247-.986-.702-.986-.6 0-1.027.701-1.027 1.69 0 .658.228.991.679.991zM37.837 14.179c-.166 1.557-.46 3.134-.69 4.692l-.061.338h1.324c.474-3.076.588-3.677 1.331-3.601.118-.63.339-1.181.503-1.459-.555-.116-.864.198-1.27.793.032-.257.091-.507.079-.763h-1.216zM26.938 14.179c-.166 1.557-.461 3.134-.691 4.692l-.06.338h1.325c.473-3.076.587-3.677 1.33-3.601.119-.63.339-1.181.503-1.459-.554-.116-.864.198-1.269.793.032-.257.09-.507.079-.763h-1.216zM44.234 18.816a.393.393 0 1 1 .787-.001.393.393 0 0 1-.787.001zm.394.299a.299.299 0 1 0 0-.597.299.299 0 0 0 0 .597zm-.054-.127h-.081v-.345h.146c.03 0 .062.001.088.017a.104.104 0 0 1 .044.087.093.093 0 0 1-.06.089l.064.152h-.09l-.053-.136h-.059v.137zm0-.196h.044c.017 0 .035.001.05-.007a.05.05 0 0 0 .02-.04.046.046 0 0 0-.02-.036c-.014-.008-.037-.006-.052-.006h-.043v.088z"/></symbol></defs></svg>